# This file uses centimeters as units for non-parametric coordinates.

g default
v 8.510236 -0.046977 -4.708225
v 12.548713 -0.046977 -4.708225
v 8.510236 2.000651 -4.492094
v 12.548713 2.000651 -4.492094
v 8.510236 2.000651 -6.539722
v 12.548713 2.000651 -6.539722
v 8.510236 -0.046977 -6.323592
v 12.548713 -0.046977 -6.323592
v 8.510236 2.235109 -4.492094
v 12.548713 2.235109 -4.492094
v 12.548713 2.235109 -6.539722
v 8.510236 2.235109 -6.539722
v 8.326682 2.000651 -4.342352
v 12.732267 2.000651 -4.342352
v 12.732267 2.235109 -4.342352
v 8.326682 2.235109 -4.342352
v 12.732267 2.000651 -6.689465
v 12.732267 2.235109 -6.689465
v 8.326682 2.000651 -6.689465
v 8.326682 2.235109 -6.689465
v 8.510236 2.643824 -4.681320
v 12.548713 2.643824 -4.681320
v 12.548713 2.643824 -6.350496
v 8.510236 2.643824 -6.350496
v 8.510236 2.907617 -5.160420
v 12.548713 2.907617 -5.160420
v 12.548713 2.907617 -5.871397
v 8.510236 2.907617 -5.871397
vt 0.605194 0.729309
vt 0.605194 0.600886
vt 0.808912 0.581619
vt 0.808912 0.748575
vt 0.216141 0.599886
vt 0.216141 0.730308
vt 0.007356 0.751208
vt 0.007357 0.578985
vt 0.925594 0.323747
vt 0.927176 0.834713
vt 0.959024 0.834713
vt 0.955978 0.323747
vt 0.843682 0.320870
vt 0.843682 0.013254
vt 0.873992 0.013255
vt 0.873993 0.320870
vt 0.679831 0.255160
vt 0.679831 0.016424
vt 0.727484 0.038486
vt 0.727484 0.233098
vt 0.758240 0.094345
vt 0.758240 0.177239
vt 0.679946 0.524985
vt 0.679946 0.286249
vt 0.727599 0.308311
vt 0.727599 0.502923
vt 0.758355 0.364170
vt 0.758355 0.447064
vt 0.612446 0.241221
vt 0.184235 0.238432
vt 0.185742 0.142846
vt 0.613953 0.145635
vt 0.611288 0.314751
vt 0.183076 0.311962
vt 0.186901 0.069316
vt 0.615112 0.072105
vt 0.821021 0.815947
vt 0.904001 0.312946
vt 0.906836 0.814068
vt 0.821605 0.310096
vt 0.977570 0.312947
vt 0.893374 0.815947
vt 0.896069 0.310096
vt 0.959027 0.339230
vt 0.979364 0.814070
vt 0.605194 0.938140
vt 0.216141 0.938141
vt 0.216141 0.391683
vt 0.605194 0.391683
vt 0.927179 0.339229
vt 0.610333 0.375304
vt 0.182122 0.372514
vt 0.187855 0.008764
vt 0.616066 0.011553
vt 0.979367 0.359874
vt 0.906839 0.359873
vt 0.977576 0.023460
vt 0.904007 0.023460
vt 0.896069 0.024029
vt 0.893374 0.362848
vt 0.821021 0.362848
vt 0.821605 0.024029
vt 0.841312 0.342254
vt 0.873083 0.342255
vt 0.925599 0.012660
vt 0.955983 0.012660
vt 0.841312 0.836541
vt 0.873083 0.836541
vn 0.000000 -0.104969 0.994475
vn 0.000000 -0.104969 0.994475
vn 0.000000 -0.104969 0.994475
vn 0.000000 -0.104969 0.994475
vn 0.000000 0.976303 0.216408
vn 0.000000 0.976303 0.216408
vn 0.000000 0.976303 -0.216408
vn 0.000000 0.976303 -0.216408
vn 0.000000 -0.104969 -0.994475
vn 0.000000 -0.104969 -0.994475
vn 0.000000 -0.104969 -0.994475
vn 0.000000 -0.104969 -0.994475
vn 0.000000 -1.000000 0.000000
vn 0.000000 -1.000000 0.000000
vn 0.000000 -1.000000 0.000000
vn 0.000000 -1.000000 0.000000
vn 1.000000 0.000000 0.000000
vn 1.000000 0.000000 0.000000
vn 1.000000 0.000000 0.000000
vn 1.000000 0.000000 0.000000
vn -1.000000 0.000000 0.000000
vn -1.000000 0.000000 0.000000
vn -1.000000 0.000000 0.000000
vn -1.000000 0.000000 0.000000
vn 0.000000 0.000000 1.000000
vn 0.000000 0.000000 1.000000
vn 0.000000 0.000000 1.000000
vn 0.000000 0.000000 1.000000
vn 1.000000 0.000000 0.000000
vn 1.000000 0.000000 0.000000
vn 1.000000 0.000000 0.000000
vn 1.000000 0.000000 0.000000
vn 0.000000 0.000000 -1.000000
vn 0.000000 0.000000 -1.000000
vn 0.000000 0.000000 -1.000000
vn 0.000000 0.000000 -1.000000
vn -1.000000 0.000000 0.000000
vn -1.000000 0.000000 0.000000
vn -1.000000 0.000000 0.000000
vn -1.000000 0.000000 0.000000
vn 0.000000 -1.000000 0.000000
vn 0.000000 -1.000000 0.000000
vn 0.000000 -1.000000 0.000000
vn 0.000000 -1.000000 0.000000
vn 0.000000 1.000000 -0.000001
vn 0.000000 1.000000 -0.000001
vn 0.000000 1.000000 -0.000001
vn 0.000000 1.000000 -0.000001
vn 0.000000 -1.000000 0.000000
vn 0.000000 -1.000000 0.000000
vn 0.000000 -1.000000 0.000000
vn 0.000000 -1.000000 0.000000
vn 0.000000 1.000000 0.000000
vn 0.000000 1.000000 0.000000
vn 0.000000 1.000000 0.000000
vn 0.000000 1.000000 0.000000
vn 0.000000 -1.000000 0.000000
vn 0.000000 -1.000000 0.000000
vn 0.000000 -1.000000 0.000000
vn 0.000000 -1.000000 0.000000
vn 0.000000 1.000000 0.000000
vn 0.000000 1.000000 0.000000
vn 0.000000 1.000000 0.000000
vn 0.000000 1.000000 0.000000
vn 0.000000 -1.000000 0.000000
vn 0.000000 -1.000000 0.000000
vn 0.000000 -1.000000 0.000000
vn 0.000000 -1.000000 0.000000
vn 0.000000 1.000000 0.000000
vn 0.000000 1.000000 0.000000
vn 0.000000 1.000000 0.000000
vn 0.000000 1.000000 0.000000
vn 0.000000 0.420134 0.907462
vn 0.000000 0.420134 0.907462
vn 0.000000 0.704897 0.709309
vn 0.000000 0.704897 0.709309
vn 1.000000 -0.000001 0.000000
vn 1.000000 -0.000001 0.000000
vn 1.000000 -0.000001 0.000000
vn 1.000000 -0.000001 0.000000
vn 0.000000 0.420135 -0.907462
vn 0.000000 0.420135 -0.907462
vn 0.000000 0.704898 -0.709309
vn 0.000000 0.704898 -0.709309
vn -1.000000 -0.000001 0.000000
vn -1.000000 -0.000001 0.000000
vn -1.000000 -0.000001 0.000000
vn -1.000000 -0.000001 0.000000
vn 1.000000 0.000000 0.000000
vn 1.000000 0.000000 0.000000
vn 1.000000 0.000000 0.000000
vn 1.000000 0.000000 0.000000
vn -1.000000 0.000001 0.000000
vn -1.000000 0.000001 0.000000
vn -1.000000 0.000001 0.000000
vn -1.000000 0.000001 0.000000
s off
g Prop_Bin
f 1/6/1 2/1/2 4/46/3 3/47/4
s 1
f 25/29/5 26/30/6 27/31/7 28/32/8
s off
f 5/48/9 6/49/10 8/2/11 7/5/12
f 7/5/13 8/2/14 2/1/15 1/6/16
f 2/1/17 8/2/18 6/3/19 4/4/20
f 7/5/21 1/6/22 3/7/23 5/8/24
f 13/67/25 14/63/26 15/64/27 16/68/28
f 14/9/29 17/65/30 18/66/31 15/12/32
f 17/10/33 19/50/34 20/44/35 18/11/36
f 19/13/37 13/14/38 16/15/39 20/16/40
f 3/37/41 4/61/42 14/63/43 13/67/44
f 10/60/45 9/42/46 16/68/47 15/64/48
f 4/38/49 6/58/50 17/65/51 14/9/52
f 11/57/53 10/41/54 15/12/55 18/66/56
f 6/39/57 5/56/58 19/50/59 17/10/60
f 12/55/61 11/45/62 18/11/63 20/44/64
f 5/40/65 3/62/66 13/14/67 19/13/68
f 9/59/69 12/43/70 20/16/71 16/15/72
s 1
f 9/51/73 10/52/74 22/34/75 21/33/76
s off
f 10/17/77 11/18/78 23/19/79 22/20/80
s 1
f 11/53/81 12/54/82 24/36/83 23/35/84
s off
f 12/23/85 9/24/86 21/25/87 24/26/88
s 1
f 21/33/76 22/34/75 26/30/6 25/29/5
s off
f 22/20/89 23/19/90 27/21/91 26/22/92
s 1
f 23/35/84 24/36/83 28/32/8 27/31/7
s off
f 24/26/93 21/25/94 25/27/95 28/28/96
