# This file uses centimeters as units for non-parametric coordinates.

mtllib Settings_LP.mtl
g default
v -3.906449 0.784517 0.196986
v 3.906449 0.784517 0.196986
v -3.906449 7.215483 0.196986
v 3.906449 7.215483 0.196986
v 3.648045 5.463868 -0.072984
v 0.928547 5.463868 -0.072984
v 0.683241 5.463868 -0.072984
v -3.648045 5.463868 -0.072984
v 3.648045 1.065447 -0.072984
v 0.928547 1.065447 -0.072984
v 0.683241 1.065447 -0.072984
v -3.648045 1.065447 -0.072984
v -3.648045 6.073522 -0.117790
v -3.648045 5.463868 -0.117790
v 3.648045 6.073522 -0.117790
v 0.928547 6.073522 -0.117790
v 0.683241 6.073522 -0.117790
v 3.648045 5.463868 -0.117790
v 0.928547 5.463868 -0.117790
v 0.683241 5.463868 -0.117790
v -3.906449 6.073522 -0.155380
v -3.648045 6.073522 -0.155380
v -3.648045 1.065447 -0.155380
v -3.906449 0.784517 -0.155380
v 3.906449 6.073522 -0.155380
v 3.648045 6.073522 -0.155380
v 0.928547 6.073522 -0.155380
v 0.683241 6.073522 -0.155380
v 3.906449 0.784517 -0.155380
v 3.648045 1.065447 -0.155380
v 0.928547 1.065447 -0.155380
v 0.683241 1.065447 -0.155380
v -3.906449 7.215483 -0.196986
v 3.906449 7.215483 -0.196986
v 3.906449 6.073522 -0.196986
v -3.906449 6.073522 -0.196986
vt 0.911683 0.036006
vt 0.550280 0.035954
vt 0.550280 0.011896
vt 0.989653 0.011947
vt 0.989653 0.038847
vt 0.911683 0.038847
vt 0.582967 0.086767
vt 0.582967 0.096115
vt 0.083848 0.096115
vt 0.083848 0.091032
vt 0.014681 0.091032
vt 0.014681 0.086767
vt 0.530521 0.136228
vt 0.530521 0.144776
vt 0.073166 0.144776
vt 0.073166 0.140127
vt 0.009919 0.140127
vt 0.009919 0.136228
vt 0.982017 0.154834
vt 0.982016 0.158734
vt 0.918770 0.158734
vt 0.461205 0.154834
vt 0.918770 0.163382
vt 0.982178 0.144776
vt 0.591250 0.106743
vt 0.591250 0.111008
vt 0.522082 0.111008
vt 0.022130 0.106743
vt 0.522082 0.116091
vt 0.892540 0.096115
vt 0.628914 0.069857
vt 0.628914 0.072697
vt 0.550089 0.072697
vt 0.550089 0.045798
vt 0.990032 0.045798
vt 0.990032 0.069857
vt 0.063095 0.756152
vt 0.368864 0.756152
vt 0.368864 0.761654
vt 0.063095 0.761654
vt 0.430604 0.755551
vt 0.917596 0.755551
vt 0.917596 0.761476
vt 0.430604 0.761476
vt 0.016554 0.035903
vt 0.016554 0.011844
vt 0.015792 0.072697
vt 0.015792 0.045798
vt 0.015797 0.865371
vt 0.015797 0.860061
vt 0.042912 0.860061
vt 0.337724 0.860061
vt 0.042912 0.856058
vt 0.337724 0.856058
vt 0.364317 0.860061
vt 0.860973 0.865371
vt 0.833858 0.860061
vt 0.860973 0.860061
vt 0.364317 0.856058
vt 0.833858 0.856058
vt 0.984451 0.866777
vt 0.984451 0.975033
vt 0.895342 0.975033
vt 0.895342 0.866777
vt 0.975277 0.184867
vt 0.975277 0.832364
vt 0.943642 0.832364
vt 0.943642 0.219259
vt 0.413392 0.219259
vt 0.018796 0.184867
vt 0.383361 0.219259
vt 0.050431 0.219259
vt 0.413392 0.832364
vt 0.383361 0.832364
vt 0.050431 0.832364
vt 0.018796 0.832364
vt 0.860973 0.989522
vt 0.015797 0.989522
vt 0.368864 0.830781
vt 0.063095 0.830781
vt 0.917596 0.830341
vt 0.430604 0.830341
vt 0.063095 0.261728
vt 0.368864 0.261728
vt 0.430604 0.260440
vt 0.917596 0.260440
vt 0.461205 0.163382
vt 0.982178 0.136228
vt 0.022130 0.116092
vt 0.892540 0.086767
vn 0.000000 0.000000 1.000000
vn 0.000000 0.000000 1.000000
vn 0.000000 0.000000 1.000000
vn 0.000000 0.000000 1.000000
vn -0.000000 0.000000 -1.000000
vn -0.000000 0.000000 -1.000000
vn -0.000000 0.000000 -1.000000
vn -0.000000 0.000000 -1.000000
vn 0.000000 0.000000 -1.000000
vn 0.000000 0.000000 -1.000000
vn 0.000000 0.000000 -1.000000
vn 0.000000 0.000000 -1.000000
vn 0.000000 0.000000 -1.000000
vn 0.000000 0.000000 -1.000000
vn 0.000000 0.000000 -1.000000
vn 0.000000 0.000000 -1.000000
vn 0.000000 0.000000 -1.000000
vn 0.000000 0.000000 -1.000000
vn 0.000000 0.000000 -1.000000
vn 0.000000 0.000000 -1.000000
vn 0.000000 0.000000 -1.000000
vn 0.000000 0.000000 -1.000000
vn 0.000000 0.000000 -1.000000
vn 0.000000 0.000000 -1.000000
vn 0.000000 0.000000 -1.000000
vn 0.000000 0.000000 -1.000000
vn 0.000000 0.000000 -1.000000
vn 0.000000 0.000000 -1.000000
vn -1.000000 -0.000000 0.000000
vn -1.000000 0.000000 0.000000
vn -1.000000 0.000000 0.000000
vn -1.000000 -0.000000 0.000000
vn -1.000000 0.000000 0.000000
vn -1.000000 0.000000 0.000000
vn -1.000000 0.000000 0.000000
vn -1.000000 0.000000 0.000000
vn 0.000000 -1.000000 0.000000
vn 0.000000 -1.000000 0.000000
vn 0.000000 -1.000000 0.000000
vn 0.000000 -1.000000 0.000000
vn -1.000000 -0.000000 0.000000
vn -1.000000 -0.000000 0.000000
vn -1.000000 -0.000000 0.000000
vn -1.000000 -0.000000 0.000000
vn 0.000000 -1.000000 0.000000
vn 0.000000 -1.000000 0.000000
vn 0.000000 -1.000000 0.000000
vn 0.000000 -1.000000 0.000000
vn 0.000000 1.000000 0.000000
vn 0.000000 1.000000 0.000000
vn 0.000000 1.000000 0.000000
vn 0.000000 1.000000 0.000000
vn 0.000000 1.000000 0.000000
vn 0.000000 1.000000 0.000000
vn 0.000000 1.000000 0.000000
vn 0.000000 1.000000 0.000000
vn 1.000000 0.000000 0.000000
vn 1.000000 0.000000 0.000000
vn 1.000000 0.000000 0.000000
vn 1.000000 0.000000 0.000000
vn 1.000000 0.000000 0.000000
vn 1.000000 0.000000 0.000000
vn 1.000000 0.000000 0.000000
vn 1.000000 0.000000 0.000000
vn 0.000000 -1.000000 0.000000
vn 0.000000 -1.000000 0.000000
vn 0.000000 -1.000000 0.000000
vn 0.000000 -1.000000 0.000000
vn 0.000000 1.000000 0.000000
vn 0.000000 1.000000 0.000000
vn 0.000000 1.000000 0.000000
vn 0.000000 1.000000 0.000000
vn 1.000000 -0.000000 0.000000
vn 1.000000 -0.000000 0.000000
vn 1.000000 -0.000000 0.000000
vn 1.000000 -0.000000 0.000000
vn 0.000000 -1.000000 -0.000001
vn 0.000000 -1.000000 0.000000
vn 0.000000 -1.000000 0.000000
vn 0.000000 -1.000000 -0.000017
vn -1.000000 -0.000000 0.000000
vn -1.000000 -0.000000 0.000000
vn 0.000000 0.000000 -1.000000
vn 0.000000 0.000000 -1.000000
vn 0.000000 0.000000 -1.000000
vn 0.000000 0.000000 -1.000000
vn 0.000000 0.000000 -1.000000
vn 0.000000 0.000000 -1.000000
vn 0.000000 0.000000 -1.000000
vn 0.000000 0.000000 -1.000000
vn 0.000000 0.000000 -1.000000
vn 0.000000 0.000000 -1.000000
vn 1.000000 0.000000 0.000000
vn 1.000000 0.000000 0.000000
vn -1.000000 0.000000 0.000000
vn -1.000000 0.000000 0.000000
vn -1.000000 0.000000 0.000000
vn -1.000000 0.000000 0.000000
vn 1.000000 0.000000 0.000000
vn 1.000000 0.000000 0.000000
vn 0.000000 -1.000000 0.000000
vn 0.000000 -1.000000 0.000000
vn 0.000000 -1.000000 -0.000015
vn 0.000000 -1.000000 -0.000004
vn 0.000000 -1.000000 -0.000002
vn 0.000000 -1.000000 0.000000
vn 0.000000 -1.000000 0.000000
vn 0.000000 -1.000000 -0.000004
vn 1.000000 0.000000 0.000000
vn 1.000000 0.000000 0.000000
s off
g Bord_LP:Bord_LP:pCube1
usemtl initialShadingGroup
f 1/61/1 2/62/2 4/63/3 3/64/4
s 1
f 24/65/5 21/66/6 22/67/7 23/68/8
s off
f 33/77/9 34/78/10 35/49/11 36/56/12
f 16/79/13 15/80/14 18/40/15 19/39/16
f 13/81/17 17/82/18 20/44/19 14/43/20
f 6/38/21 5/37/22 9/83/23 10/84/24
f 8/42/25 7/41/26 11/85/27 12/86/28
s 2
f 21/1/29 24/2/30 1/3/31 3/4/32
s 3
f 30/7/33 9/8/34 5/9/35 18/10/36
s off
f 5/37/37 6/38/38 19/39/39 18/40/40
s 4
f 32/13/41 11/14/42 7/15/43 20/16/44
s off
f 7/41/45 8/42/46 14/43/47 20/44/48
f 10/30/49 9/8/50 30/7/51 31/90/52
f 12/24/53 11/14/54 32/13/55 23/88/56
s 5
f 22/19/57 13/20/58 14/21/59 23/22/60
s 6
f 27/25/61 16/26/62 19/27/63 31/28/64
s off
f 29/45/65 2/46/66 1/3/67 24/2/68
f 4/34/69 34/33/70 33/47/71 3/48/72
s 7
f 25/31/73 35/32/74 34/33/75 4/34/76
s 8
f 35/49/77 25/50/78 26/51/79 27/52/80
s 2
f 21/1/29 3/4/32 33/5/81 36/6/82
s off
f 29/70/83 30/72/84 26/75/85 25/76/86
s 1
f 31/71/87 32/69/88 28/73/89 27/74/90
f 24/65/5 23/68/8 32/69/88 29/70/91
f 29/70/91 32/69/88 31/71/87 30/72/92
s 6
f 31/28/64 19/27/63 6/29/93 10/89/94
s 4
f 32/13/41 20/16/44 17/17/95 28/18/96
s 3
f 30/7/33 18/10/36 15/11/97 26/12/98
s 5
f 23/22/60 14/21/59 8/23/99 12/87/100
s 8
f 27/52/80 26/51/79 15/53/101 16/54/102
f 35/49/77 27/52/80 28/55/103 36/56/104
f 22/57/105 28/55/103 17/59/106 13/60/107
f 36/56/104 28/55/103 22/57/105 21/58/108
s 7
f 25/31/73 4/34/76 2/35/109 29/36/110
